<svg width="64" height="64" viewBox="0 0 64 64" fill="none" xmlns="http://www.w3.org/2000/svg">
<path d="M0 24C0 15.5992 0 11.3988 1.6349 8.19014C3.073 5.36771 5.36771 3.073 8.19014 1.6349C11.3988 0 15.5992 0 24 0H40C48.4008 0 52.6012 0 55.8099 1.6349C58.6323 3.073 60.927 5.36771 62.3651 8.19014C64 11.3988 64 15.5992 64 24V40C64 48.4008 64 52.6012 62.3651 55.8099C60.927 58.6323 58.6323 60.927 55.8099 62.3651C52.6012 64 48.4008 64 40 64H24C15.5992 64 11.3988 64 8.19014 62.3651C5.36771 60.927 3.073 58.6323 1.6349 55.8099C0 52.6012 0 48.4008 0 40V24Z" fill="black"/>
<path d="M15.9132 45.0181C15.9132 47.006 14.8902 48 12.8443 48C11.8506 48 11.0615 47.7478 10.4769 47.2434C9.89237 46.739 9.6001 45.9972 9.6001 45.0181V27.5271C9.6001 24.7381 9.96544 22.5127 10.6961 20.8512C11.4268 19.1599 12.6251 17.9286 14.291 17.1572C15.957 16.3857 18.1783 16 20.9548 16C24.6374 16 27.414 16.8753 29.2845 18.6259C31.1843 20.3468 32.1342 23.3139 32.1342 27.5271V45.0181C32.1342 47.006 31.1112 48 29.0653 48C28.0716 48 27.2825 47.7478 26.6979 47.2434C26.1134 46.739 25.8211 45.9972 25.8211 45.0181V27.5271C25.8211 25.3315 25.4412 23.7738 24.6813 22.854C23.9506 21.9045 22.7084 21.4298 20.9548 21.4298C19.5812 21.4298 18.529 21.6375 17.7983 22.0528C17.0676 22.4682 16.5708 23.121 16.3077 24.0111C16.0447 24.9013 15.9132 26.0732 15.9132 27.5271V45.0181Z" fill="white"/>
<path d="M37.916 48C35.8117 48 34.7595 46.9912 34.7595 44.9736V34.2921C34.7595 31.4437 35.6509 29.1887 37.4338 27.5271C39.2458 25.8656 41.6279 25.0348 44.5798 25.0348C47.5317 25.0348 49.8991 25.8656 51.682 27.5271C53.4941 29.1887 54.4001 31.4437 54.4001 34.2921V44.9736C54.4001 46.9912 53.3479 48 51.2436 48C49.1392 48 48.087 46.9912 48.087 44.9736V34.6481C48.087 33.2536 47.7802 32.2003 47.1664 31.4882C46.5526 30.7464 45.6904 30.3755 44.5798 30.3755C43.4692 30.3755 42.607 30.7464 41.9932 31.4882C41.3794 32.2003 41.0725 33.2536 41.0725 34.6481V44.9736C41.0725 46.9912 40.0204 48 37.916 48Z" fill="white"/>
</svg>
