<svg width="28" height="28" viewBox="0 0 28 28" fill="none" xmlns="http://www.w3.org/2000/svg">
<path d="M13.4141 2.40613C13.7988 2.30957 14.2021 2.30943 14.5869 2.40613C15.0329 2.51831 15.4165 2.79167 15.7324 3.01746L15.8184 3.07996L26.3418 10.5389C26.8672 10.9116 26.9907 11.6394 26.6182 12.1649C26.2455 12.6906 25.5178 12.8149 24.9922 12.4423L23.7637 11.5712V19.4882C23.7637 20.1301 23.763 20.6818 23.7256 21.1356C23.6861 21.614 23.5992 22.0861 23.3662 22.5389C23.0174 23.2169 22.4619 23.7669 21.7812 24.1102C21.3277 24.339 20.8548 24.4239 20.374 24.4628C19.9171 24.4997 19.3612 24.4999 18.7119 24.4999H9.28809C8.63887 24.4999 8.0829 24.4997 7.62598 24.4628C7.14524 24.4239 6.67224 24.339 6.21875 24.1102C5.53803 23.7668 4.98262 23.2168 4.63379 22.5389C4.40083 22.0861 4.3139 21.614 4.27441 21.1356C4.23696 20.6818 4.23728 20.1301 4.2373 19.4882V18.3378H6.57031V19.4423C6.57031 20.1424 6.57105 20.5968 6.59961 20.9432C6.62705 21.2757 6.67441 21.4044 6.70898 21.4716C6.83106 21.7087 7.02709 21.9035 7.27051 22.0262C7.3424 22.0625 7.47644 22.1102 7.81445 22.1376C8.16597 22.166 8.6265 22.1669 9.33301 22.1669H18.667C19.3735 22.1669 19.834 22.166 20.1855 22.1376C20.5239 22.1102 20.6587 22.0625 20.7305 22.0262C20.9737 21.9034 21.1691 21.7084 21.291 21.4716C21.3256 21.4044 21.373 21.2757 21.4004 20.9432C21.4289 20.5969 21.4297 20.1424 21.4297 19.4423V9.91687L14.4697 4.98328C14.2512 4.82837 14.134 4.74568 14.0449 4.69128C14.0258 4.67961 14.0115 4.67208 14.002 4.66687H13.998C13.9885 4.67208 13.9741 4.67964 13.9551 4.69128C13.8661 4.74567 13.7497 4.82845 13.5312 4.98328L6.57031 9.91687V9.91882L4.2373 11.576V11.5712L3.00781 12.4423C2.48216 12.8148 1.75442 12.6905 1.38184 12.1649C1.00934 11.6393 1.13357 10.9115 1.65918 10.5389L12.1816 3.07996L12.2686 3.01746C12.5845 2.79166 12.9681 2.51819 13.4141 2.40613ZM10.373 10.3729C10.8286 9.91736 11.5678 9.9174 12.0234 10.3729L15.9922 14.3417C16.4476 14.7973 16.4477 15.5365 15.9922 15.9921L12.0234 19.9598C11.5678 20.4155 10.8287 20.4154 10.373 19.9598C9.91782 19.5043 9.91778 18.766 10.373 18.3104L12.3506 16.3329H2.88184C2.23756 16.3329 1.71494 15.8111 1.71484 15.1669C1.71484 14.5225 2.2375 13.9999 2.88184 13.9999H12.3506L10.373 12.0233C9.91752 11.5677 9.91746 10.8285 10.373 10.3729Z" fill="black" fill-opacity="0.5"/>
</svg>
