<svg width="24" height="24" viewBox="0 0 24 24" fill="none" xmlns="http://www.w3.org/2000/svg">
<path d="M19 12.0117C19 11.5044 18.5958 11.0932 18.0972 11.0932H8.19615L11.8659 7.61173C12.1151 7.3912 12.2261 7.0498 12.1552 6.72156C12.0844 6.39332 11.843 6.13065 11.5259 6.03667C11.2088 5.94269 10.8666 6.03241 10.6336 6.2706L5.28698 11.3389C5.10393 11.5126 5 11.7559 5 12.0106C5 12.2653 5.10393 12.5086 5.28698 12.6823L10.6336 17.7529C10.9982 18.0991 11.5696 18.0791 11.9099 17.7081C12.2502 17.3371 12.2305 16.7557 11.8659 16.4095L8.19615 12.9303H18.0972C18.5958 12.9303 19 12.5191 19 12.0117Z" fill="black" fill-opacity="0.5"/>
</svg>
