<svg width="16" height="16" viewBox="0 0 16 16" fill="none" xmlns="http://www.w3.org/2000/svg">
<path d="M2 11.1999V6.13346C2 5.7711 1.99929 5.45891 2.02019 5.20312C2.04173 4.93962 2.0896 4.67733 2.2181 4.42513L2.29492 4.28776C2.48705 3.97444 2.76254 3.71925 3.0918 3.55143L3.18685 3.50651C3.40959 3.41101 3.63921 3.37237 3.86979 3.35352C4.12558 3.33262 4.43777 3.33333 4.80013 3.33333H6C6.36819 3.33333 6.66667 3.63181 6.66667 4C6.66667 4.36819 6.36819 4.66667 6 4.66667H4.80013C4.41577 4.66667 4.16741 4.66751 3.97852 4.68294C3.8429 4.69403 3.77112 4.71043 3.72982 4.72526L3.69727 4.73958C3.60322 4.78753 3.52244 4.85682 3.46094 4.94141L3.40625 5.0306C3.38946 5.06355 3.36441 5.13079 3.34961 5.31185C3.33418 5.50074 3.33334 5.7491 3.33334 6.13346V11.1999C3.33334 11.5842 3.33418 11.8326 3.34961 12.0215C3.36441 12.2026 3.38947 12.2698 3.40625 12.3027L3.46094 12.3919C3.52246 12.4765 3.60325 12.5458 3.69727 12.5938L3.72982 12.6081C3.77111 12.6229 3.84289 12.6393 3.97852 12.6504C4.16741 12.6658 4.41577 12.6667 4.80013 12.6667H9.86654C10.2509 12.6667 10.4993 12.6658 10.6882 12.6504C10.8692 12.6356 10.9365 12.6105 10.9694 12.5938L11.0586 12.5391C11.1432 12.4776 11.2125 12.3968 11.2604 12.3027L11.2747 12.2702C11.2896 12.2289 11.306 12.1571 11.3171 12.0215C11.3325 11.8326 11.3333 11.5842 11.3333 11.1999V10C11.3333 9.63181 11.6318 9.33333 12 9.33333C12.3682 9.33333 12.6667 9.63181 12.6667 10V11.1999C12.6667 11.5622 12.6674 11.8744 12.6465 12.1302C12.6276 12.3608 12.589 12.5904 12.4935 12.8132L12.4486 12.9082C12.2808 13.2375 12.0256 13.513 11.7122 13.7051L11.5749 13.7819C11.3227 13.9104 11.0604 13.9583 10.7969 13.9798C10.5411 14.0007 10.2289 14 9.86654 14H4.80013C4.43777 14 4.12558 14.0007 3.86979 13.9798C3.63921 13.961 3.40959 13.9223 3.18685 13.8268L3.0918 13.7819C2.76249 13.6141 2.48703 13.3589 2.29492 13.0456L2.2181 12.9082C2.08959 12.656 2.04173 12.3937 2.02019 12.1302C1.99929 11.8744 2 11.5622 2 11.1999ZM14 6.66667C14 7.03486 13.7015 7.33333 13.3333 7.33333C12.9651 7.33333 12.6667 7.03486 12.6667 6.66667V4.27604L7.80469 9.13802C7.54434 9.39837 7.12233 9.39837 6.86198 9.13802C6.60163 8.87767 6.60163 8.45566 6.86198 8.19531L11.724 3.33333H9.33334C8.96515 3.33333 8.66667 3.03486 8.66667 2.66667C8.66667 2.29848 8.96515 2 9.33334 2H13.3333L13.4017 2.00326C13.7378 2.03748 14 2.32155 14 2.66667V6.66667Z" fill="black"/>
</svg>
