<svg width="20" height="20" viewBox="0 0 20 20" fill="none" xmlns="http://www.w3.org/2000/svg">
<path d="M4.16669 9.99021C4.16669 10.413 4.50351 10.7557 4.91899 10.7557L13.1699 10.7557L10.1118 13.6569C9.9041 13.8407 9.81163 14.1252 9.87067 14.3987C9.92971 14.6722 10.1308 14.8911 10.3951 14.9694C10.6593 15.0478 10.9445 14.973 11.1387 14.7745L15.5942 10.5509C15.7467 10.4062 15.8334 10.2034 15.8334 9.99117C15.8334 9.77892 15.7467 9.57619 15.5942 9.43141L11.1387 5.20593C10.8349 4.91739 10.3587 4.9341 10.0751 5.24325C9.79153 5.5524 9.80796 6.03692 10.1118 6.32545L13.1699 9.22473L4.91899 9.22473C4.50351 9.22473 4.16669 9.56745 4.16669 9.99021Z" fill="black" fill-opacity="0.5"/>
</svg>
