<svg width="30" height="30" viewBox="0 0 30 30" fill="none" xmlns="http://www.w3.org/2000/svg">
<path d="M15 2.5C21.9036 2.5 27.5 8.09644 27.5 15C27.5 21.9036 21.9036 27.5 15 27.5C8.09644 27.5 2.5 21.9036 2.5 15C2.5 8.09644 8.09644 2.5 15 2.5ZM15 5C9.47715 5 5 9.47715 5 15C5 20.5228 9.47715 25 15 25C20.5228 25 25 20.5228 25 15C25 9.47715 20.5228 5 15 5ZM15 18.75C16.0355 18.75 16.875 19.5895 16.875 20.625C16.875 21.6605 16.0355 22.5 15 22.5C13.9645 22.5 13.125 21.6605 13.125 20.625C13.125 19.5895 13.9645 18.75 15 18.75ZM15 7.5C16.0355 7.5 16.875 8.33947 16.875 9.375V15.625C16.875 16.6605 16.0355 17.5 15 17.5C13.9645 17.5 13.125 16.6605 13.125 15.625V9.375C13.125 8.33947 13.9645 7.5 15 7.5Z" fill="black"/>
</svg>
