<svg width="20" height="21" viewBox="0 0 20 21" fill="none" xmlns="http://www.w3.org/2000/svg">
<path d="M10 2.16699C14.6024 2.16699 18.333 5.89763 18.333 10.5C18.333 15.1024 14.6024 18.833 10 18.833C5.39763 18.833 1.66699 15.1024 1.66699 10.5C1.66699 5.89763 5.39763 2.16699 10 2.16699ZM10 13C9.30964 13 8.75 13.5596 8.75 14.25C8.75 14.9404 9.30964 15.5 10 15.5C10.6904 15.5 11.25 14.9404 11.25 14.25C11.25 13.5596 10.6904 13 10 13ZM10 5.5C9.30964 5.5 8.75 6.05964 8.75 6.75V10.917C8.75018 11.6072 9.30975 12.167 10 12.167C10.6902 12.167 11.2498 11.6072 11.25 10.917V6.75C11.25 6.05964 10.6904 5.5 10 5.5Z" fill="#E1485F"/>
</svg>
