<svg width="30" height="30" viewBox="0 0 30 30" fill="none" xmlns="http://www.w3.org/2000/svg">
<path d="M22.25 27.5H7.75C6.25 27.5 5.375 27.5 4.5 27.125C3.75 26.75 3.25 26.25 2.875 25.5C2.5 24.75 2.5 23.875 2.5 22.25V10.25C2.5 8.75 2.5 7.875 2.875 7C3.25 6.25 3.75 5.75 4.5 5.375C5.25 5 6 5 7.5 5V3.75C7.5 3 8 2.5 8.75 2.5C9.5 2.5 10 3 10 3.75V5H20V3.75C20 3 20.5 2.5 21.25 2.5C22 2.5 22.5 3 22.5 3.75V5C23.875 5 24.75 5 25.5 5.375C26.25 5.75 26.75 6.25 27.125 7C27.5 7.75 27.5 8.625 27.5 10.25V22.25C27.5 23.75 27.5 24.625 27.125 25.5C26.75 26.25 26.25 26.75 25.5 27.125C24.75 27.5 23.875 27.5 22.25 27.5ZM5 12.5V22.25C5 23.375 5 24 5.125 24.375C5.125 24.625 5.375 24.75 5.625 24.875C5.875 25 6.625 25 7.75 25H22.25C23.375 25 24 25 24.375 24.875C24.625 24.875 24.75 24.625 24.875 24.375C25 24.125 25 23.375 25 22.25V12.5H5ZM5 10H25C25 9 25 8.375 24.875 8.125C24.875 7.875 24.625 7.75 24.375 7.625C24.125 7.5 23.375 7.5 22.25 7.5H7.75C6.625 7.5 6 7.5 5.625 7.625C5.375 7.625 5.25 8 5.125 8.125C5.125 8.375 5 9 5 10ZM12.5 22.5H8.75C8 22.5 7.5 22 7.5 21.25C7.5 20.5 8 20 8.75 20H12.5C13.25 20 13.75 20.5 13.75 21.25C13.75 22 13.25 22.5 12.5 22.5ZM12.5 17.5H8.75C8 17.5 7.5 17 7.5 16.25C7.5 15.5 8 15 8.75 15H12.5C13.25 15 13.75 15.5 13.75 16.25C13.75 17 13.25 17.5 12.5 17.5Z" fill="black"/>
<path d="M17.5 17.5H21.25C22 17.5 22.5 17 22.5 16.25C22.5 15.5 22 15 21.25 15H17.5C16.75 15 16.25 15.5 16.25 16.25C16.25 17 16.75 17.5 17.5 17.5Z" fill="black"/>
<path d="M17.5 22.5H21.25C22 22.5 22.5 22 22.5 21.25C22.5 20.5 22 20 21.25 20H17.5C16.75 20 16.25 20.5 16.25 21.25C16.25 22 16.75 22.5 17.5 22.5Z" fill="black"/>
</svg>
