<svg width="24" height="24" viewBox="0 0 24 24" fill="none" xmlns="http://www.w3.org/2000/svg">
<path fill-rule="evenodd" clip-rule="evenodd" d="M16.1245 20.9928C13.9854 21.0739 10.4536 20.5187 6.96745 17.0326C3.48126 13.5464 2.92612 10.0145 3.00725 7.87546C3.06355 6.38942 3.90675 5.14167 4.82692 4.22149C6.59472 2.4537 9.6135 2.56553 10.8681 4.81352L11.5203 5.98225C12.3348 7.44169 11.9873 9.26771 10.8176 10.4636C10.8154 10.4672 10.8127 10.4718 10.8096 10.4775C10.7925 10.5094 10.764 10.5757 10.7589 10.6802C10.75 10.8612 10.8037 11.4033 11.7002 12.2998C12.5968 13.1963 13.1388 13.25 13.3198 13.2412C13.4243 13.236 13.4906 13.2075 13.5224 13.1904C13.5281 13.1874 13.5328 13.1846 13.5364 13.1824C14.7323 12.0127 16.5583 11.6652 18.0177 12.4797L19.1865 13.1319C21.4345 14.3865 21.5463 17.4053 19.7785 19.1731C18.8583 20.0932 17.6106 20.9365 16.1245 20.9928ZM14.8624 14.5746L14.8611 14.5758L14.8585 14.5784L14.8529 14.5839L14.8401 14.5961C14.8309 14.6048 14.8203 14.6146 14.8082 14.6253C14.7841 14.6466 14.7542 14.6718 14.7184 14.6994C14.647 14.7544 14.5509 14.8201 14.4304 14.8847C14.1876 15.0148 13.8454 15.14 13.4139 15.1611C12.5229 15.2048 11.4833 14.8013 10.341 13.659C9.19871 12.5167 8.79527 11.4771 8.83892 10.5861C8.86006 10.1546 8.98518 9.81242 9.11525 9.56967C9.17984 9.44912 9.24559 9.35309 9.30062 9.28168C9.3282 9.24588 9.35336 9.21593 9.37471 9.19183C9.3854 9.17976 9.39517 9.16912 9.40386 9.15991L9.41609 9.14713L9.42156 9.14153L9.42414 9.13893L9.42538 9.13768C9.42701 9.13605 10.5612 10.2709 9.4266 9.13646C10.0856 8.47743 10.1972 7.55586 9.84174 6.91903L9.18951 5.75028C8.66646 4.81304 7.21811 4.54877 6.18616 5.58073C5.424 6.34288 4.95813 7.1561 4.92812 7.94827C4.86379 9.64444 5.2793 12.6259 8.32668 15.6733C11.374 18.7207 14.3555 19.1362 16.0517 19.0719C16.8439 19.0419 17.6571 18.576 18.4193 17.8138C19.4512 16.7819 19.187 15.3336 18.2497 14.8105L17.081 14.1583C16.4442 13.8029 15.5226 13.9143 14.8636 14.5734C13.729 13.4388 14.8641 14.5729 14.8624 14.5746Z" fill="#19AD3E"/>
</svg>
