<svg width="12" height="12" viewBox="0 0 12 12" fill="none" xmlns="http://www.w3.org/2000/svg">
<path d="M6 1C8.76142 1 11 3.23858 11 6C11 8.76142 8.76142 11 6 11C3.23858 11 1 8.76142 1 6C1 3.23858 3.23858 1 6 1ZM8.10352 4.64648C7.90825 4.45164 7.59175 4.45164 7.39648 4.64648L5.5 6.54004L4.60352 5.64355C4.40831 5.44902 4.09169 5.44902 3.89648 5.64355C3.70122 5.8384 3.70122 6.15477 3.89648 6.34961L5.14648 7.59766C5.34175 7.7925 5.65825 7.7925 5.85352 7.59766L8.10352 5.35156C8.29867 5.15677 8.2986 4.84132 8.10352 4.64648Z" fill="#19AD3E"/>
</svg>
