<svg width="20" height="20" viewBox="0 0 20 20" fill="none" xmlns="http://www.w3.org/2000/svg">
<path d="M4.10699 4.10693C7.36121 0.852717 12.6377 0.853023 15.8922 4.10693C19.1465 7.3613 19.1465 12.6377 15.8922 15.8921C12.6378 19.1465 7.36136 19.1465 4.10699 15.8921C0.853083 12.6377 0.852778 7.36115 4.10699 4.10693ZM14.7144 5.28564C12.1109 2.68215 7.8892 2.68215 5.28571 5.28564C2.68221 7.88914 2.68221 12.1109 5.28571 14.7144C7.8892 17.3178 12.1109 17.3178 14.7144 14.7144C17.3179 12.1109 17.3179 7.88914 14.7144 5.28564ZM12.3277 7.74365C12.6531 7.41898 13.181 7.41894 13.5064 7.74365C13.8315 8.06833 13.8315 8.59477 13.5064 8.91943L9.75641 12.6636C9.43107 12.9882 8.90316 12.988 8.5777 12.6636L6.49371 10.5825C6.1686 10.2578 6.16862 9.73142 6.49371 9.40674C6.81914 9.08201 7.34698 9.08203 7.67242 9.40674L9.16656 10.8989L12.3277 7.74365Z" fill="#19AD3E"/>
</svg>
