<svg width="20" height="20" viewBox="0 0 20 20" fill="none" xmlns="http://www.w3.org/2000/svg">
<path d="M10 1.66699C14.6021 1.66717 18.3338 5.39789 18.334 10C18.3338 14.6021 14.6021 18.3338 10 18.334C5.39789 18.3338 1.66717 14.6021 1.66699 10C1.66717 5.39789 5.39789 1.66717 10 1.66699ZM10 3.33398C6.31836 3.33416 3.33416 6.31836 3.33398 10C3.33416 13.6816 6.31836 16.6668 10 16.667C13.6816 16.6668 16.6668 13.6816 16.667 10C16.6668 6.31836 13.6816 3.33416 10 3.33398ZM10 5C10.4601 5 10.8328 5.37292 10.833 5.83301V10H14.167C14.627 10.0002 14.9998 10.373 15 10.833C15 11.2931 14.6271 11.6668 14.167 11.667H10C9.97131 11.667 9.94298 11.6649 9.91504 11.6621C9.49472 11.6195 9.16699 11.2646 9.16699 10.833V5.83301C9.16717 5.37292 9.53987 5 10 5Z" fill="#EB8F0A"/>
</svg>
