<svg width="20" height="20" viewBox="0 0 20 20" fill="none" xmlns="http://www.w3.org/2000/svg">
<path d="M7.05374 8.23207C6.72831 7.90663 6.72831 7.379 7.05374 7.05356C7.37918 6.72812 7.90682 6.72812 8.23225 7.05356L10 8.82133L11.7678 7.05356C12.0932 6.72812 12.6209 6.72812 12.9463 7.05356C13.2717 7.379 13.2717 7.90663 12.9463 8.23207L11.1785 9.99984L12.9463 11.7676C13.2717 12.093 13.2717 12.6207 12.9463 12.9461C12.6209 13.2716 12.0932 13.2716 11.7678 12.9461L10 11.1783L8.23225 12.9461C7.90682 13.2716 7.37918 13.2716 7.05374 12.9461C6.72831 12.6207 6.72831 12.093 7.05374 11.7676L8.82151 9.99984L7.05374 8.23207Z" fill="#FF3B30"/>
<path fill-rule="evenodd" clip-rule="evenodd" d="M15.8926 15.8924C19.1469 12.638 19.1469 7.36165 15.8926 4.10728C12.6382 0.852912 7.36183 0.852911 4.10746 4.10728C0.853095 7.36165 0.853095 12.638 4.10746 15.8924C7.36183 19.1468 12.6382 19.1468 15.8926 15.8924ZM14.7141 5.28579C17.3176 7.88929 17.3176 12.1104 14.7141 14.7139C12.1106 17.3174 7.88947 17.3174 5.28598 14.7139C2.68248 12.1104 2.68248 7.88929 5.28598 5.28579C7.88947 2.6823 12.1106 2.6823 14.7141 5.28579Z" fill="#FF3B30"/>
</svg>
