<svg width="24" height="24" viewBox="0 0 24 24" fill="none" xmlns="http://www.w3.org/2000/svg">
<path d="M6.71945 5.29501C6.3261 4.90166 5.68836 4.90166 5.29501 5.29501C4.90166 5.68836 4.90166 6.3261 5.29501 6.71945L10.5756 12L5.29504 17.2806C4.90169 17.6739 4.90169 18.3116 5.29504 18.705C5.68839 19.0983 6.32613 19.0983 6.71948 18.705L12 13.4245L17.2805 18.705C17.6739 19.0983 18.3116 19.0983 18.705 18.705C19.0983 18.3116 19.0983 17.6739 18.705 17.2805L13.4244 12L18.705 6.71946C19.0983 6.32611 19.0983 5.68837 18.705 5.29502C18.3116 4.90167 17.6739 4.90167 17.2806 5.29502L12 10.5756L6.71945 5.29501Z" fill="black"/>
</svg>
