<svg width="16" height="16" viewBox="0 0 16 16" fill="none" xmlns="http://www.w3.org/2000/svg">
<path d="M4.48028 3.53066C4.21805 3.26843 3.79289 3.26843 3.53066 3.53066C3.26843 3.79289 3.26843 4.21805 3.53066 4.48028L7.05103 8.00066L3.53068 11.521C3.26845 11.7833 3.26845 12.2084 3.53068 12.4706C3.79291 12.7329 4.21807 12.7329 4.4803 12.4706L8.00066 8.95029L11.521 12.4706C11.7832 12.7329 12.2084 12.7329 12.4706 12.4706C12.7329 12.2084 12.7329 11.7832 12.4706 11.521L8.95028 8.00066L12.4706 4.48029C12.7329 4.21806 12.7329 3.7929 12.4706 3.53066C12.2084 3.26843 11.7833 3.26843 11.521 3.53066L8.00065 7.05103L4.48028 3.53066Z" fill="#FF3B30"/>
</svg>
