<svg width="20" height="21" viewBox="0 0 20 21" fill="none" xmlns="http://www.w3.org/2000/svg">
<path d="M3.74992 15.9167L2.08325 7.16667L6.66658 8.83333L9.99992 4.25L13.3333 8.83333L18.3333 6.75L16.2499 15.9167H3.74992Z" fill="#FFDF99"/>
<path fill-rule="evenodd" clip-rule="evenodd" d="M9.99995 3C10.2786 3 10.5388 3.13925 10.6933 3.37108L13.6186 7.75898L17.9606 5.58798C18.2464 5.4451 18.5886 5.47817 18.8418 5.67311C19.0949 5.86804 19.2143 6.19053 19.1491 6.50329L17.3422 15.1765C17.1007 16.3358 16.0789 17.1667 14.8947 17.1667H5.10518C3.92096 17.1667 2.89925 16.3358 2.65772 15.1766L2.65772 15.1765L0.850797 6.50329C0.785638 6.19053 0.905025 5.86804 1.15814 5.67311C1.41126 5.47817 1.75354 5.4451 2.03929 5.58798L6.3813 7.75898L9.30657 3.37108C9.46113 3.13925 9.72132 3 9.99995 3ZM9.99995 5.33565L7.35999 9.29558C7.12686 9.64527 6.66984 9.76664 6.29394 9.57869L2.83349 7.84847L4.28935 14.8366C4.28935 14.8366 4.28936 14.8366 4.28936 14.8366C4.36987 15.223 4.71047 15.5 5.10518 15.5H14.8947C15.2895 15.5 15.63 15.223 15.7105 14.8366L16.5264 15.0066L15.7105 14.8366L17.1664 7.84847L13.706 9.57869C13.3301 9.76664 12.873 9.64527 12.6399 9.29558L9.99995 5.33565Z" fill="#FFAE00"/>
<path fill-rule="evenodd" clip-rule="evenodd" d="M15.0105 10.1228C15.4593 10.2248 15.7404 10.6714 15.6383 11.1201L14.9794 14.0183C14.8773 14.4671 14.4308 14.7482 13.982 14.6461C13.5332 14.5441 13.2521 14.0975 13.3542 13.6488L14.0131 10.7506C14.1152 10.3018 14.5617 10.0207 15.0105 10.1228Z" fill="white"/>
<circle cx="8.57227" cy="12.3845" r="1.25" fill="white"/>
<circle cx="10" cy="12.3845" r="1.25" fill="#FFAE00"/>
</svg>
