<svg width="25" height="24" viewBox="0 0 25 24" fill="none" xmlns="http://www.w3.org/2000/svg">
<path d="M17.3333 2C18.9902 2 20.3333 3.34315 20.3333 5V11C20.3333 11.5523 19.8856 12 19.3333 12C18.781 12 18.3333 11.5523 18.3333 11V5C18.3333 4.44771 17.8856 4 17.3333 4H7.33331C6.78103 4 6.33331 4.44771 6.33331 5V19C6.33331 19.5523 6.78102 20 7.33331 20H10.3333C10.8856 20 11.3333 20.4477 11.3333 21C11.3333 21.5523 10.8856 22 10.3333 22H7.33331C5.67647 22 4.33331 20.6569 4.33331 19V5C4.33331 3.34315 5.67646 2 7.33331 2H17.3333ZM20.1341 14.2842C20.4962 13.9296 21.0762 13.9 21.4739 14.2314C21.8716 14.5629 21.9468 15.1385 21.6634 15.5586L21.6019 15.6406L16.6019 21.6406C16.422 21.8565 16.1589 21.9863 15.8782 21.999C15.5977 22.0116 15.3249 21.9056 15.1263 21.707L13.1263 19.707L13.0579 19.6309C12.7376 19.2381 12.7602 18.6591 13.1263 18.293C13.4924 17.9269 14.0714 17.9043 14.4642 18.2246L14.5403 18.293L15.7659 19.5186L20.0648 14.3594L20.1341 14.2842ZM11.3333 10C11.8856 10 12.3333 10.4477 12.3333 11C12.3333 11.5523 11.8856 12 11.3333 12H9.33331C8.78103 12 8.33331 11.5523 8.33331 11C8.33331 10.4477 8.78103 10 9.33331 10H11.3333ZM15.3333 6C15.8856 6 16.3333 6.44772 16.3333 7C16.3333 7.55228 15.8856 8 15.3333 8H9.33331C8.78103 8 8.33331 7.55228 8.33331 7C8.33331 6.44772 8.78103 6 9.33331 6H15.3333Z" fill="black"/>
</svg>
