<svg width="16" height="16" viewBox="0 0 16 16" fill="none" xmlns="http://www.w3.org/2000/svg">
<path fill-rule="evenodd" clip-rule="evenodd" d="M4.66669 2.66683C4.2985 2.66683 4.00002 2.96531 4.00002 3.3335V12.6668C4.00002 13.035 4.29849 13.3335 4.66669 13.3335H11.3334C11.7016 13.3335 12 13.035 12 12.6668V6.66683H10C8.89542 6.66683 8.00002 5.77139 8.00002 4.66683V2.66683H4.66669ZM9.33335 3.60964L11.0572 5.3335H10C9.63182 5.3335 9.33335 5.03503 9.33335 4.66683V3.60964ZM12.7476 5.13823C13.1227 5.51332 13.3334 6.02203 13.3334 6.55245V12.6668C13.3334 13.7714 12.4379 14.6668 11.3334 14.6668H4.66669C3.56212 14.6668 2.66669 13.7714 2.66669 12.6668V3.3335C2.66669 2.22893 3.56212 1.3335 4.66669 1.3335H8.11442C8.64484 1.3335 9.15353 1.54421 9.52861 1.91927L9.52863 1.91929L12.7475 5.13822C12.7475 5.13822 12.7476 5.13823 12.7476 5.13823ZM5.33335 8.66683C5.33335 8.29864 5.63183 8.00016 6.00002 8.00016H8.00002C8.36821 8.00016 8.66669 8.29864 8.66669 8.66683C8.66669 9.03502 8.36821 9.3335 8.00002 9.3335H6.00002C5.63183 9.3335 5.33335 9.03502 5.33335 8.66683ZM5.33335 11.3335C5.33335 10.9653 5.63183 10.6668 6.00002 10.6668H10.3334C10.7015 10.6668 11 10.9653 11 11.3335C11 11.7017 10.7015 12.0002 10.3334 12.0002H6.00002C5.63183 12.0002 5.33335 11.7017 5.33335 11.3335Z" fill="black"/>
</svg>
