<svg width="25" height="24" viewBox="0 0 25 24" fill="none" xmlns="http://www.w3.org/2000/svg">
<path d="M20.5 14C21.0523 14 21.5 14.4477 21.5 15V18C21.5 19.6569 20.1569 21 18.5 21H6.5C4.84315 21 3.5 19.6569 3.5 18V15C3.5 14.4477 3.94772 14 4.5 14C5.05228 14 5.5 14.4477 5.5 15V18C5.5 18.5523 5.94771 19 6.5 19H18.5C19.0523 19 19.5 18.5523 19.5 18V15C19.5 14.4477 19.9477 14 20.5 14ZM12.5 3C13.0523 3 13.5 3.44772 13.5 4V12.0859L15.293 10.293C15.6835 9.90244 16.3165 9.90244 16.707 10.293C17.0975 10.6835 17.0976 11.3165 16.707 11.707L13.207 15.207C12.8165 15.5975 12.1835 15.5975 11.793 15.207L8.29297 11.707C7.90245 11.3165 7.90245 10.6835 8.29297 10.293C8.68349 9.90244 9.31651 9.90244 9.70703 10.293L11.5 12.0859V4C11.5 3.44772 11.9477 3 12.5 3Z" fill="black"/>
</svg>
