<svg width="30" height="30" viewBox="0 0 30 30" fill="none" xmlns="http://www.w3.org/2000/svg">
  <path fill-rule="evenodd" clip-rule="evenodd" d="M6.25 7.5C4.86929 7.5 3.75 8.61929 3.75 10V20C3.75 21.3807 4.86929 22.5 6.25 22.5H23.75C25.1307 22.5 26.25 21.3807 26.25 20V10C26.25 8.61929 25.1307 7.5 23.75 7.5H6.25ZM6.25 10L15 15.625L23.75 10H6.25ZM23.75 12.9688L15.6757 18.159C15.2651 18.4229 14.7349 18.4229 14.3243 18.159L6.25 12.9688V20H23.75V12.9688ZM21.25 2.5C21.9404 2.5 22.5 3.05964 22.5 3.75V5H23.75C24.4404 5 25 5.55964 25 6.25C25 6.94036 24.4404 7.5 23.75 7.5H22.5V8.75C22.5 9.44036 21.9404 10 21.25 10C20.5596 10 20 9.44036 20 8.75V7.5H18.75C18.0596 7.5 17.5 6.94036 17.5 6.25C17.5 5.55964 18.0596 5 18.75 5H20V3.75C20 3.05964 20.5596 2.5 21.25 2.5Z" fill="black"/>
</svg>
