<svg width="24" height="24" viewBox="0 0 24 24" fill="none" xmlns="http://www.w3.org/2000/svg">
<path d="M12 4C16.0447 4.00013 19.974 6.27256 22.6006 10.583C23.1323 11.4557 23.1332 12.5443 22.6016 13.417H22.6006C19.974 17.7274 16.0447 19.9998 12 20C7.95518 19.9999 4.02506 17.7276 1.39844 13.417C0.866783 12.5443 0.866873 11.4557 1.39844 10.583C4.02506 6.2724 7.95521 4.00011 12 4ZM12 6C8.79931 6.00011 5.48299 7.79113 3.1582 11.6064C3.0106 11.8488 3.0107 12.1514 3.1582 12.3936C5.48299 16.2089 8.79931 17.9999 12 18C15.2006 17.9998 18.5171 16.2087 20.8418 12.3936C20.9892 12.1513 20.9891 11.8485 20.8418 11.6064C18.5171 7.79126 15.2006 6.00014 12 6ZM12 8C14.2612 8.0001 16.0938 9.79087 16.0938 12C16.0938 14.2091 14.2612 15.9999 12 16C9.7387 16 7.90527 14.2092 7.90527 12C7.90527 9.79082 9.7387 8 12 8ZM12 10C10.8693 10 9.95312 10.8954 9.95312 12C9.95312 13.1046 10.8693 14 12 14C13.1306 13.9999 14.0469 13.1046 14.0469 12C14.0469 10.8954 13.1306 10.0001 12 10Z" fill="black"/>
</svg>
