<svg width="24" height="24" viewBox="0 0 24 24" fill="none" xmlns="http://www.w3.org/2000/svg">
<path fill-rule="evenodd" clip-rule="evenodd" d="M9.99997 8.99997C8.8954 8.99997 7.99997 9.8954 7.99997 11V15C7.99997 16.1045 8.8954 17 9.99997 17H14C15.1045 17 16 16.1045 16 15V11C16 9.8954 15.1045 8.99997 14 8.99997H9.99997ZM9.99997 11H14V15H9.99997V11Z" fill="black"/>
<path fill-rule="evenodd" clip-rule="evenodd" d="M20.3684 16.7039V9.91825L21.4217 10.6649C21.8722 10.9843 22.4964 10.8779 22.8158 10.4274C23.1352 9.9768 23.0288 9.35263 22.5783 9.03324L13.5587 2.63957L13.4845 2.58669C13.2136 2.3931 12.8851 2.15825 12.5026 2.06215C12.1727 1.97925 11.8272 1.97932 11.4973 2.06215C11.1149 2.15825 10.7863 2.3931 10.5154 2.58669L10.4412 2.63957L1.42165 9.03324C0.971088 9.35263 0.864749 9.9768 1.18414 10.4274C1.50353 10.8779 2.1277 10.9843 2.57826 10.6649L3.63155 9.91824L3.63155 16.7039C3.63153 17.2542 3.63151 17.727 3.66362 18.1161C3.69747 18.5263 3.77202 18.9311 3.97185 19.3194C4.27088 19.9005 4.74706 20.3712 5.3306 20.6656C5.71936 20.8617 6.12448 20.935 6.5366 20.9683C6.92832 21 7.40479 21 7.96139 21H16.0385C16.5951 21 17.0716 21 17.4633 20.9683C17.8754 20.935 18.2805 20.8617 18.6693 20.6656C19.2527 20.3713 19.729 19.9006 20.0281 19.3194C20.2279 18.9311 20.3025 18.5263 20.3363 18.1161C20.3684 17.727 20.3684 17.2542 20.3684 16.7039ZM11.9617 4.02145C11.9782 4.01134 11.9903 4.00446 11.9986 4L12.0013 4C12.0096 4.00446 12.0217 4.01134 12.0383 4.02145C12.1146 4.06808 12.2148 4.13845 12.4021 4.27122L18.3684 8.50051V16.6647C18.3684 17.2651 18.3676 17.6547 18.3431 17.9516C18.3196 18.2366 18.2793 18.3468 18.2497 18.4043C18.1451 18.6075 17.9771 18.7747 17.7684 18.88C17.7069 18.911 17.5921 18.9514 17.3021 18.9748C17.0007 18.9992 16.6058 19 16 19H7.99997C7.3941 19 6.99926 18.9992 6.69788 18.9748C6.4079 18.9514 6.29297 18.911 6.23139 18.8799C6.02272 18.7747 5.85481 18.6076 5.75017 18.4042C5.72054 18.3467 5.68036 18.2366 5.65684 17.9516C5.63234 17.6547 5.63155 17.2651 5.63155 16.6647V8.50051L11.5978 4.27121C11.7852 4.13843 11.8853 4.06808 11.9617 4.02145Z" fill="black"/>
</svg>
