<svg width="28" height="28" viewBox="0 0 28 28" fill="none" xmlns="http://www.w3.org/2000/svg">
<path d="M15.3079 1.80371C17.5966 1.80371 19.0255 2.21817 19.9143 4.33398C20.0081 4.27379 20.104 4.21773 20.2073 4.16992C22.1159 3.28008 24.6963 4.77654 25.9729 7.51074C27.088 9.90334 25.4792 13.7073 25.4709 13.7686C26.3001 14.4679 26.8333 15.5412 26.8333 16.7451C26.8331 18.4333 25.7793 19.8695 24.3254 20.3672C22.4617 23.9106 18.7373 26.1981 14.6096 26.1982C10.4848 26.1982 6.76602 23.9176 4.90161 20.3818C3.42512 19.9001 2.35083 18.451 2.35083 16.7461C2.35095 15.5257 2.9022 14.436 3.7561 13.7373C3.83223 13.0511 3.95512 12.2984 4.12915 11.5898C2.57275 11.0616 1.56936 10.5497 1.48364 10.5039C1.27413 10.3941 1.14933 10.1699 1.16821 9.93262C1.18716 9.69661 1.34672 9.49486 1.57153 9.41992C1.59653 9.41137 3.63148 8.71971 6.02563 6.71289C6.47402 6.33706 6.91722 5.92598 7.34497 5.52832C9.29672 3.71822 11.3155 1.84541 15.0549 1.80469L15.3079 1.80371ZM18.9631 10.5127C18.2414 10.9618 17.3355 11.4021 16.2102 11.8447C14.6209 12.4709 12.853 12.7881 10.9592 12.7881C9.31972 12.7881 7.76434 12.5544 6.40161 12.2363C6.27531 12.7651 6.17883 13.3444 6.1145 13.9033C6.13519 14.6681 6.25729 15.4377 6.47681 16.1865C6.24368 15.9062 6.03692 15.6143 5.85278 15.3115C5.20948 15.3841 4.71021 15.9932 4.71021 16.7451C4.71039 17.5441 5.2746 18.1904 5.97681 18.1904C6.15201 18.1904 6.31777 18.1505 6.46997 18.0791C7.61671 21.4255 10.824 23.8369 14.6077 23.8369C18.3889 23.8368 21.5913 21.429 22.7434 18.0898C22.8855 18.1541 23.0422 18.1933 23.2043 18.1934C23.9083 18.1928 24.4727 17.544 24.4729 16.7451C24.4729 15.995 23.9734 15.3841 23.3313 15.3115C23.1466 15.6149 22.9394 15.908 22.7063 16.1865C22.8904 15.5574 23.0085 14.9124 23.054 14.2686C21.5355 13.9922 19.9632 12.6797 19.0549 10.7305C19.0202 10.658 18.9938 10.5852 18.9631 10.5127ZM17.5002 18.667C17.5001 20.5999 16.194 22.167 14.5833 22.167C12.9725 22.167 11.6664 20.5999 11.6663 18.667H17.5002ZM11.0823 14C12.0482 14 12.8333 14.786 12.8333 15.752C12.8331 16.7154 12.0473 17.5 11.0823 17.5C10.1189 17.4999 9.33341 16.7153 9.33325 15.752C9.33325 14.7861 10.1188 14.0001 11.0823 14ZM18.0823 14C19.0482 14 19.8333 14.786 19.8333 15.752C19.8331 16.7154 19.0473 17.5 18.0823 17.5C17.1189 17.4999 16.3334 16.7153 16.3333 15.752C16.3333 14.7861 17.1188 14.0001 18.0823 14ZM14.8811 4.21973C11.7031 4.26579 9.33033 7.81701 5.73364 9.49414C5.90687 9.9547 8.26469 10.577 11.2581 10.623C14.247 10.669 17.4964 8.86453 18.8821 8.09473L18.8889 8.09082C19.177 7.84146 19.8901 7.65429 20.4426 8.89746C20.9953 10.1409 22.1245 11.6364 23.5881 11.8867C23.7417 11.5221 24.2512 10.4711 24.2512 9.49414C24.2512 8.09117 23.5401 6.74362 21.9856 6.05273C20.7423 5.5002 19.0528 6.40942 18.5725 6.87012C18.6299 6.00643 17.8547 4.17679 14.8811 4.21973Z" fill="black" fill-opacity="0.5"/>
</svg>
