<svg width="28" height="28" viewBox="0 0 28 28" fill="none" xmlns="http://www.w3.org/2000/svg">
<path d="M13.9983 4.66658C13.9887 4.67179 13.9746 4.67981 13.9553 4.69162C13.8662 4.74601 13.7493 4.82809 13.5308 4.98299L6.57012 9.91718V19.4421C6.57012 20.1426 6.57104 20.5971 6.59963 20.9435C6.62707 21.276 6.67394 21.4044 6.70852 21.4715C6.83059 21.7087 7.02649 21.9037 7.26993 22.0265C7.34178 22.0627 7.47586 22.1099 7.81418 22.1372C8.16578 22.1657 8.62643 22.1666 9.33328 22.1666H18.6666C19.3734 22.1666 19.8341 22.1657 20.1857 22.1372L20.2217 22.1342C22.0221 22.1094 22.695 21.8902 23.7408 20.9129C23.7366 20.9895 23.7316 21.0637 23.7257 21.1354C23.6862 21.614 23.5992 22.0862 23.3661 22.5393C23.0172 23.2173 22.4615 23.7664 21.7808 24.1098C21.3273 24.3386 20.8547 24.4241 20.3739 24.463C19.9169 24.4999 19.361 24.4999 18.7116 24.4999H9.2883C8.63895 24.4999 8.08301 24.4999 7.62602 24.463C7.1452 24.4241 6.67257 24.3386 6.21901 24.1098C5.53821 23.7663 4.98267 23.2171 4.63381 22.5393C4.40067 22.0862 4.31369 21.614 4.2742 21.1354C4.23675 20.6815 4.23676 20.1298 4.23678 19.4878L4.23679 11.5712L3.00795 12.4423C2.4823 12.8149 1.7541 12.6908 1.38147 12.1652C1.00885 11.6395 1.13292 10.9113 1.65857 10.5387L12.1814 3.07942L12.268 3.01773C12.584 2.79187 12.9673 2.51788 13.4135 2.40576C13.7983 2.30912 14.2014 2.30904 14.5864 2.40576C15.0326 2.51788 15.4159 2.79187 15.7319 3.01773L15.8184 3.07942L22.7969 8.02617C22.0058 7.88186 21.1975 8.02411 20.53 8.34214C20.2724 8.46489 20.0358 8.61382 19.8292 8.78257L14.4691 4.98301C14.2506 4.82811 14.1337 4.74601 14.0446 4.69162C14.0253 4.67981 14.0112 4.67179 14.0015 4.66658L13.9983 4.66658Z" fill="black" fill-opacity="0.5"/>
<path d="M22.5231 10.3732C22.0675 9.91754 21.3288 9.91754 20.8732 10.3732C20.4176 10.8288 20.4176 11.5675 20.8732 12.0231L22.85 13.9999H14.548C13.9037 13.9999 13.3814 14.5222 13.3814 15.1666C13.3814 15.8109 13.9037 16.3332 14.548 16.3332H22.8501L20.8732 18.3101C20.4176 18.7657 20.4176 19.5044 20.8732 19.96C21.3288 20.4156 22.0675 20.4156 22.5231 19.96L26.4916 15.9915C26.9472 15.5359 26.9472 14.7972 26.4916 14.3416L22.5231 10.3732Z" fill="black" fill-opacity="0.5"/>
</svg>
