<svg width="28" height="28" viewBox="0 0 28 28" fill="none" xmlns="http://www.w3.org/2000/svg">
<path d="M14 2.33301C19.1852 2.33301 23.333 6.64684 23.333 11.8984C23.333 14.8479 22.0648 17.578 20.5781 19.7783C19.0834 21.9905 17.2969 23.7717 16.1025 24.8486C14.8928 25.9391 13.1072 25.9391 11.8975 24.8486C10.7031 23.7717 8.91659 21.9905 7.42188 19.7783C5.93517 17.578 4.66704 14.8479 4.66699 11.8984C4.66699 6.64684 8.81481 2.33301 14 2.33301ZM14 4.66699C10.1646 4.66699 7 7.87357 7 11.8984C7.00005 14.1923 7.9977 16.4622 9.35547 18.4717C10.7054 20.4695 12.3428 22.1079 13.46 23.1152C13.7819 23.4055 14.2181 23.4055 14.54 23.1152C15.6572 22.1079 17.2946 20.4695 18.6445 18.4717C20.0023 16.4622 21 14.1923 21 11.8984C21 7.87356 17.8355 4.66699 14 4.66699ZM13.9971 7.58301C16.2522 7.58301 18.0811 9.41183 18.0811 11.667C18.0809 13.922 16.2521 15.75 13.9971 15.75C11.7422 15.7498 9.91424 13.9219 9.91406 11.667C9.91406 9.41195 11.7421 7.58321 13.9971 7.58301ZM13.9971 9.91699C13.0308 9.91719 12.2471 10.7006 12.2471 11.667C12.2472 12.6332 13.0309 13.4168 13.9971 13.417C14.9634 13.417 15.7469 12.6333 15.7471 11.667C15.7471 10.7005 14.9636 9.91699 13.9971 9.91699Z" fill="black" fill-opacity="0.5"/>
</svg>
