<svg width="30" height="30" viewBox="0 0 30 30" fill="none" xmlns="http://www.w3.org/2000/svg">
<path d="M15 2.5C20.5555 2.5 24.9999 7.12138 25 12.748C25 15.9081 23.6407 18.833 22.0479 21.1904C20.4464 23.5606 18.5326 25.4692 17.2529 26.623C15.9567 27.7918 14.0433 27.7918 12.7471 26.623C11.4674 25.4692 9.55361 23.5606 7.95215 21.1904C6.35932 18.833 5 15.9081 5 12.748C5.00005 7.12138 9.44447 2.5 15 2.5ZM15 5C10.8906 5 7.50005 8.43573 7.5 12.748C7.5 15.2059 8.56957 17.6379 10.0244 19.791C11.4707 21.9314 13.2239 23.6873 14.4209 24.7666C14.7659 25.0776 15.2341 25.0776 15.5791 24.7666C16.7761 23.6873 18.5293 21.9314 19.9756 19.791C21.4304 17.6379 22.5 15.2059 22.5 12.748C22.4999 8.43573 19.1094 5 15 5ZM14.9971 8.125C17.4133 8.125 19.3721 10.0838 19.3721 12.5C19.3721 14.9162 17.4133 16.875 14.9971 16.875C12.5809 16.8749 10.6221 14.9162 10.6221 12.5C10.6221 10.0838 12.5809 8.1251 14.9971 8.125ZM14.9971 10.625C13.9616 10.6251 13.1221 11.4645 13.1221 12.5C13.1221 13.5355 13.9616 14.3749 14.9971 14.375C16.0326 14.375 16.8721 13.5355 16.8721 12.5C16.8721 11.4645 16.0326 10.625 14.9971 10.625Z" fill="black"/>
</svg>
