<svg width="103" height="39" viewBox="0 0 103 39" fill="none" xmlns="http://www.w3.org/2000/svg">
<path d="M4.48688 19.9499C4.48688 21.3166 3.75984 22 2.30576 22C1.59949 22 1.03863 21.8266 0.623177 21.4798C0.207726 21.1331 0 20.6231 0 19.9499V7.9249C0 6.00742 0.259657 4.47752 0.778972 3.33519C1.29829 2.17246 2.14996 1.32591 3.334 0.795548C4.51803 0.265183 6.09675 0 8.07015 0C10.6875 0 12.6609 0.601762 13.9903 1.80529C15.3405 2.98841 16.0157 5.02828 16.0157 7.9249V19.9499C16.0157 21.3166 15.2886 22 13.8345 22C13.1283 22 12.5674 21.8266 12.152 21.4798C11.7365 21.1331 11.5288 20.6231 11.5288 19.9499V7.9249C11.5288 6.41539 11.2587 5.34446 10.7186 4.7121C10.1993 4.05934 9.3165 3.73296 8.07015 3.73296C7.09383 3.73296 6.34602 3.87575 5.82671 4.16133C5.30739 4.44692 4.95426 4.89569 4.76731 5.50765C4.58035 6.11961 4.48688 6.92536 4.48688 7.9249V19.9499Z" fill="black"/>
<path d="M24.227 22C22.1497 22 20.5295 21.5308 19.3662 20.5925C18.2029 19.6338 17.6213 18.3996 17.6213 16.8901C17.6213 15.1154 18.3795 13.8303 19.8959 13.0348C21.4331 12.2392 23.6765 11.9638 26.6262 12.2086C26.4808 11.2703 26.1796 10.6379 25.7226 10.3115C25.2656 9.96477 24.7151 9.79138 24.0712 9.79138C23.5519 9.79138 23.1157 9.82197 22.7625 9.88317C22.4302 9.92397 22.1186 9.97497 21.8278 10.0362C21.5369 10.0974 21.1838 10.128 20.7684 10.128C20.2075 10.128 19.7609 10.0362 19.4285 9.85257C19.0962 9.64859 18.93 9.25081 18.93 8.65925C18.93 7.8229 19.2935 7.21094 20.0205 6.82337C20.7684 6.41539 21.942 6.21141 23.5415 6.21141C26.0757 6.21141 27.9557 6.92536 29.1812 8.35327C30.4068 9.76078 31.0196 11.6477 31.0196 14.0139C31.0196 16.7473 30.5107 18.7668 29.4928 20.0723C28.4958 21.3574 26.7405 22 24.227 22ZM22.1082 16.8901C22.1082 18.0529 22.9079 18.6342 24.5074 18.6342C25.0267 18.6342 25.4318 18.5424 25.7226 18.3588C26.0134 18.1752 26.2212 17.8081 26.3458 17.2573C26.4912 16.7065 26.5951 15.8804 26.6574 14.7789C26.5535 14.8809 26.4185 14.9522 26.2523 14.993C26.0861 15.0338 25.92 15.0542 25.7538 15.0542C24.3828 15.0542 23.4272 15.1868 22.8872 15.452C22.3678 15.6968 22.1082 16.1762 22.1082 16.8901Z" fill="black"/>
<path d="M35.0131 22C33.5174 22 32.7696 21.3064 32.7696 19.9193V12.5758C32.7696 10.6175 33.4032 9.06722 34.6703 7.9249C35.9582 6.78257 37.6512 6.21141 39.7492 6.21141C41.8472 6.21141 43.5298 6.78257 44.797 7.9249C46.0849 9.06722 46.7288 10.6175 46.7288 12.5758V19.9193C46.7288 21.3064 45.981 22 44.4854 22C42.9897 22 42.2419 21.3064 42.2419 19.9193V12.8206C42.2419 11.8618 42.0238 11.1377 41.5876 10.6481C41.1514 10.1382 40.5386 9.88317 39.7492 9.88317C38.9599 9.88317 38.3471 10.1382 37.9108 10.6481C37.4746 11.1377 37.2565 11.8618 37.2565 12.8206V19.9193C37.2565 21.3064 36.5087 22 35.0131 22Z" fill="black"/>
<path d="M51.537 22C50.0414 22 49.2936 21.3064 49.2936 19.9193V12.5758C49.2936 10.6175 49.9271 9.06722 51.1943 7.9249C52.4822 6.78257 54.1751 6.21141 56.2731 6.21141C58.3712 6.21141 60.0538 6.78257 61.3209 7.9249C62.6088 9.06722 63.2527 10.6175 63.2527 12.5758V19.9193C63.2527 21.3064 62.5049 22 61.0093 22C59.5137 22 58.7659 21.3064 58.7659 19.9193V12.8206C58.7659 11.8618 58.5477 11.1377 58.1115 10.6481C57.6753 10.1382 57.0625 9.88317 56.2731 9.88317C55.4838 9.88317 54.871 10.1382 54.4348 10.6481C53.9986 11.1377 53.7804 11.8618 53.7804 12.8206V19.9193C53.7804 21.3064 53.0326 22 51.537 22Z" fill="black"/>
<path d="M72.2051 22C69.9824 22 68.2271 21.3778 66.9392 20.1335C65.6513 18.8892 65.0074 16.8799 65.0074 14.1057C65.0074 11.3111 65.6513 9.30181 66.9392 8.07789C68.2271 6.83357 69.9824 6.21141 72.2051 6.21141C74.4277 6.21141 76.183 6.83357 77.4709 8.07789C78.7588 9.30181 79.4028 11.3111 79.4028 14.1057C79.4028 16.8799 78.7588 18.8892 77.4709 20.1335C76.183 21.3778 74.4277 22 72.2051 22ZM72.2051 18.3282C72.7867 18.3282 73.2749 18.216 73.6695 17.9917C74.0642 17.7469 74.3654 17.3185 74.5731 16.7065C74.8016 16.0946 74.9159 15.2276 74.9159 14.1057C74.9159 12.9838 74.8016 12.1168 74.5731 11.5049C74.3654 10.8929 74.0642 10.4747 73.6695 10.2503C73.2749 10.0056 72.7867 9.88317 72.2051 9.88317C71.6442 9.88317 71.1561 10.0056 70.7406 10.2503C70.3459 10.4747 70.0343 10.8929 69.8058 11.5049C69.5981 12.1168 69.4942 12.9838 69.4942 14.1057C69.4942 15.2276 69.5981 16.0946 69.8058 16.7065C70.0343 17.3185 70.3459 17.7469 70.7406 17.9917C71.1561 18.216 71.6442 18.3282 72.2051 18.3282Z" fill="black"/>
<path d="M86.5481 22C85.6757 22 84.9902 21.7552 84.4916 21.2656C83.9931 20.7761 83.5361 19.9499 83.1206 18.7872L80.0048 9.516C79.8386 8.96523 79.7555 8.56746 79.7555 8.32267C79.7555 7.73111 79.9736 7.22114 80.4098 6.79277C80.8668 6.344 81.4277 6.11961 82.0924 6.11961C82.6117 6.11961 83.0479 6.242 83.4011 6.48679C83.775 6.73157 84.0243 7.06815 84.1489 7.49652L87.109 17.1655C87.9191 15.8804 88.4904 14.6973 88.8227 13.6161C89.1758 12.535 89.3524 11.3621 89.3524 10.0974L89.2901 7.98609C89.2901 7.45573 89.5082 7.01715 89.9444 6.67038C90.3807 6.3032 90.9207 6.11961 91.5647 6.11961C91.9386 6.11961 92.271 6.2522 92.5618 6.51739C92.8526 6.78257 93.133 7.24154 93.4031 7.8943C93.59 8.34307 93.7977 8.92443 94.0262 9.63839C94.2755 10.3523 94.5767 11.3111 94.9299 12.5146C95.3038 13.6977 95.7608 15.248 96.3008 17.1655C97.0279 16.37 97.5991 15.3908 98.0146 14.2281C98.43 13.045 98.5858 11.6681 98.482 10.0974L98.3573 7.98609C98.3366 7.45573 98.5547 7.01715 99.0117 6.67038C99.4894 6.3032 100.061 6.11961 100.725 6.11961C101.972 6.11961 102.688 6.70097 102.875 7.8637C102.917 8.12888 102.948 8.43486 102.969 8.78164C102.99 9.12842 103 9.4752 103 9.82197C103 11.3111 102.761 12.8104 102.283 14.3199C101.826 15.809 101.182 17.1859 100.352 18.4506C99.479 19.7765 98.7209 20.7047 98.0769 21.235C97.4537 21.745 96.7682 22 96.0204 22C95.5219 22 95.0129 21.7246 94.4936 21.1739C93.9951 20.6027 93.5277 19.8275 93.0915 18.8484C92.6553 17.8693 92.3021 16.7677 92.0321 15.5438C91.8244 16.1762 91.492 16.8697 91.035 17.6245C90.5988 18.3588 90.1002 19.0626 89.5394 19.7357C88.9785 20.4089 88.428 20.9597 87.888 21.388C87.3686 21.796 86.922 22 86.5481 22Z" fill="black"/>
<path d="M97.3579 38.0001C97.0719 38.0001 96.8519 37.9231 96.6979 37.7691C96.5439 37.6151 96.4669 37.3951 96.4669 37.1091V31.1361C96.4669 30.8501 96.5439 30.6301 96.6979 30.4761C96.8519 30.3221 97.0719 30.2451 97.3579 30.2451H101.197C101.417 30.2451 101.582 30.3037 101.692 30.4211C101.809 30.5311 101.868 30.6924 101.868 30.9051C101.868 31.1251 101.809 31.2937 101.692 31.4111C101.582 31.5211 101.417 31.5761 101.197 31.5761H98.0949V33.3911H100.944C101.171 33.3911 101.34 33.4497 101.45 33.5671C101.567 33.6771 101.626 33.8421 101.626 34.0621C101.626 34.2821 101.567 34.4507 101.45 34.5681C101.34 34.6781 101.171 34.7331 100.944 34.7331H98.0949V36.6691H101.197C101.417 36.6691 101.582 36.7277 101.692 36.8451C101.809 36.9551 101.868 37.1164 101.868 37.3291C101.868 37.5491 101.809 37.7177 101.692 37.8351C101.582 37.9451 101.417 38.0001 101.197 38.0001H97.3579Z" fill="black"/>
<path d="M85.7593 38.0001C85.4733 38.0001 85.2533 37.9231 85.0993 37.7691C84.9453 37.6151 84.8683 37.3951 84.8683 37.1091V31.1361C84.8683 30.8501 84.9453 30.6301 85.0993 30.4761C85.2533 30.3221 85.4733 30.2451 85.7593 30.2451H87.9043C89.2316 30.2451 90.2546 30.5824 90.9733 31.2571C91.6993 31.9244 92.0623 32.8777 92.0623 34.1171C92.0623 34.7404 91.967 35.2941 91.7763 35.7781C91.593 36.2547 91.3253 36.6581 90.9733 36.9881C90.6213 37.3181 90.1886 37.5711 89.6753 37.7471C89.162 37.9157 88.5716 38.0001 87.9043 38.0001H85.7593ZM86.5733 36.6031H87.8053C88.2233 36.6031 88.5863 36.5517 88.8943 36.4491C89.2023 36.3464 89.459 36.1924 89.6643 35.9871C89.8696 35.7817 90.0236 35.5251 90.1263 35.2171C90.229 34.9017 90.2803 34.5351 90.2803 34.1171C90.2803 33.2811 90.0713 32.6614 89.6533 32.2581C89.2426 31.8474 88.6266 31.6421 87.8053 31.6421H86.5733V36.6031Z" fill="black"/>
<path d="M76.6304 38.121C75.8678 38.121 75.1968 37.956 74.6174 37.626C74.0454 37.2887 73.5981 36.8194 73.2754 36.218C72.9601 35.6167 72.8024 34.9164 72.8024 34.117C72.8024 33.5084 72.8904 32.962 73.0664 32.478C73.2498 31.9867 73.5101 31.5687 73.8474 31.224C74.1848 30.872 74.5881 30.6007 75.0574 30.41C75.5341 30.2194 76.0584 30.124 76.6304 30.124C77.4078 30.124 78.0824 30.289 78.6544 30.619C79.2264 30.949 79.6701 31.4147 79.9854 32.016C80.3081 32.61 80.4694 33.3067 80.4694 34.106C80.4694 34.7147 80.3778 35.2647 80.1944 35.756C80.0111 36.2474 79.7508 36.669 79.4134 37.021C79.0761 37.373 78.6728 37.6444 78.2034 37.835C77.7341 38.0257 77.2098 38.121 76.6304 38.121ZM76.6304 36.669C77.0631 36.669 77.4298 36.57 77.7304 36.372C78.0384 36.1667 78.2731 35.8734 78.4344 35.492C78.6031 35.1034 78.6874 34.645 78.6874 34.117C78.6874 33.3104 78.5078 32.687 78.1484 32.247C77.7891 31.7997 77.2831 31.576 76.6304 31.576C76.2051 31.576 75.8384 31.675 75.5304 31.873C75.2224 32.071 74.9878 32.3607 74.8264 32.742C74.6651 33.1234 74.5844 33.5817 74.5844 34.117C74.5844 34.9164 74.7641 35.5434 75.1234 35.998C75.4828 36.4454 75.9851 36.669 76.6304 36.669Z" fill="black"/>
<path d="M61.1097 38.0991C60.8603 38.0991 60.6697 38.0294 60.5377 37.8901C60.4057 37.7507 60.3397 37.5564 60.3397 37.3071V30.9381C60.3397 30.6887 60.4093 30.4944 60.5487 30.3551C60.6953 30.2157 60.8933 30.1461 61.1427 30.1461C61.3627 30.1461 61.535 30.1901 61.6597 30.2781C61.7917 30.3587 61.9127 30.5017 62.0227 30.7071L64.5637 35.3491H64.1897L66.7307 30.7071C66.8407 30.5017 66.958 30.3587 67.0827 30.2781C67.2147 30.1901 67.387 30.1461 67.5997 30.1461C67.849 30.1461 68.0397 30.2157 68.1717 30.3551C68.311 30.4944 68.3807 30.6887 68.3807 30.9381V37.3071C68.3807 37.5564 68.3147 37.7507 68.1827 37.8901C68.0507 38.0294 67.86 38.0991 67.6107 38.0991C67.3613 38.0991 67.167 38.0294 67.0277 37.8901C66.8957 37.7507 66.8297 37.5564 66.8297 37.3071V32.8521H67.0717L65.0257 36.5151C64.9377 36.6544 64.8423 36.7607 64.7397 36.8341C64.6443 36.9001 64.516 36.9331 64.3547 36.9331C64.1933 36.9331 64.0613 36.8964 63.9587 36.8231C63.856 36.7497 63.7643 36.6471 63.6837 36.5151L61.6157 32.8411H61.8797V37.3071C61.8797 37.5564 61.8137 37.7507 61.6817 37.8901C61.557 38.0294 61.3663 38.0991 61.1097 38.0991Z" fill="black"/>
<path d="M43.5952 38.0991C43.3385 38.0991 43.1405 38.0294 43.0012 37.8901C42.8692 37.7434 42.8032 37.5381 42.8032 37.2741V31.0041C42.8032 30.7254 42.8692 30.5127 43.0012 30.3661C43.1405 30.2194 43.3238 30.1461 43.5512 30.1461C43.7492 30.1461 43.8995 30.1864 44.0022 30.2671C44.1122 30.3404 44.2368 30.4651 44.3762 30.6411L48.2372 35.5581H47.9402V30.9601C47.9402 30.7034 48.0062 30.5054 48.1382 30.3661C48.2775 30.2194 48.4755 30.1461 48.7322 30.1461C48.9888 30.1461 49.1832 30.2194 49.3152 30.3661C49.4545 30.5054 49.5242 30.7034 49.5242 30.9601V37.3071C49.5242 37.5491 49.4618 37.7434 49.3372 37.8901C49.2125 38.0294 49.0438 38.0991 48.8312 38.0991C48.6258 38.0991 48.4608 38.0587 48.3362 37.9781C48.2188 37.8974 48.0905 37.7691 47.9512 37.5931L44.1012 32.6761H44.3872V37.2741C44.3872 37.5381 44.3212 37.7434 44.1892 37.8901C44.0572 38.0294 43.8592 38.0991 43.5952 38.0991Z" fill="black"/>
<path d="M37.3155 38.0991C37.0369 38.0991 36.8242 38.0221 36.6775 37.8681C36.5309 37.7141 36.4575 37.4977 36.4575 37.2191V31.0261C36.4575 30.7474 36.5309 30.5311 36.6775 30.3771C36.8242 30.2231 37.0369 30.1461 37.3155 30.1461C37.5869 30.1461 37.7959 30.2231 37.9425 30.3771C38.0892 30.5311 38.1625 30.7474 38.1625 31.0261V37.2191C38.1625 37.4977 38.0892 37.7141 37.9425 37.8681C37.8032 38.0221 37.5942 38.0991 37.3155 38.0991Z" fill="black"/>
<path d="M24.5338 38.0991C24.2845 38.0991 24.0938 38.0294 23.9618 37.8901C23.8298 37.7507 23.7638 37.5564 23.7638 37.3071V30.9381C23.7638 30.6887 23.8335 30.4944 23.9728 30.3551C24.1195 30.2157 24.3175 30.1461 24.5668 30.1461C24.7868 30.1461 24.9591 30.1901 25.0838 30.2781C25.2158 30.3587 25.3368 30.5017 25.4468 30.7071L27.9878 35.3491H27.6138L30.1548 30.7071C30.2648 30.5017 30.3821 30.3587 30.5068 30.2781C30.6388 30.1901 30.8111 30.1461 31.0238 30.1461C31.2731 30.1461 31.4638 30.2157 31.5958 30.3551C31.7351 30.4944 31.8048 30.6887 31.8048 30.9381V37.3071C31.8048 37.5564 31.7388 37.7507 31.6068 37.8901C31.4748 38.0294 31.2841 38.0991 31.0348 38.0991C30.7855 38.0991 30.5911 38.0294 30.4518 37.8901C30.3198 37.7507 30.2538 37.5564 30.2538 37.3071V32.8521H30.4958L28.4498 36.5151C28.3618 36.6544 28.2665 36.7607 28.1638 36.8341C28.0685 36.9001 27.9401 36.9331 27.7788 36.9331C27.6175 36.9331 27.4855 36.8964 27.3828 36.8231C27.2801 36.7497 27.1885 36.6471 27.1078 36.5151L25.0398 32.8411H25.3038V37.3071C25.3038 37.5564 25.2378 37.7507 25.1058 37.8901C24.9811 38.0294 24.7905 38.0991 24.5338 38.0991Z" fill="black"/>
<path d="M13.0342 38.0001C12.7482 38.0001 12.5282 37.9231 12.3742 37.7691C12.2202 37.6151 12.1432 37.3951 12.1432 37.1091V31.1361C12.1432 30.8501 12.2202 30.6301 12.3742 30.4761C12.5282 30.3221 12.7482 30.2451 13.0342 30.2451H15.1792C16.5066 30.2451 17.5296 30.5824 18.2482 31.2571C18.9742 31.9244 19.3372 32.8777 19.3372 34.1171C19.3372 34.7404 19.2419 35.2941 19.0513 35.7781C18.8679 36.2547 18.6002 36.6581 18.2482 36.9881C17.8962 37.3181 17.4636 37.5711 16.9502 37.7471C16.4369 37.9157 15.8466 38.0001 15.1792 38.0001H13.0342ZM13.8482 36.6031H15.0802C15.4982 36.6031 15.8612 36.5517 16.1692 36.4491C16.4772 36.3464 16.7339 36.1924 16.9392 35.9871C17.1446 35.7817 17.2986 35.5251 17.4012 35.2171C17.5039 34.9017 17.5553 34.5351 17.5553 34.1171C17.5553 33.2811 17.3462 32.6614 16.9282 32.2581C16.5176 31.8474 15.9016 31.6421 15.0802 31.6421H13.8482V36.6031Z" fill="black"/>
<path d="M1.00103 38.0991C0.795695 38.0991 0.627029 38.0514 0.495029 37.9561C0.370362 37.8607 0.289695 37.7324 0.253029 37.5711C0.223695 37.4097 0.256695 37.2301 0.352029 37.0321L3.16803 30.8611C3.28536 30.6117 3.4247 30.4321 3.58603 30.3221C3.74736 30.2047 3.93436 30.1461 4.14703 30.1461C4.3597 30.1461 4.5467 30.2047 4.70803 30.3221C4.86936 30.4321 5.00503 30.6117 5.11503 30.8611L7.95303 37.0321C8.04836 37.2301 8.08136 37.4134 8.05203 37.5821C8.03003 37.7434 7.9567 37.8717 7.83203 37.9671C7.70736 38.0551 7.54603 38.0991 7.34803 38.0991C7.0987 38.0991 6.90436 38.0404 6.76503 37.9231C6.63303 37.8057 6.5157 37.6224 6.41303 37.3731L5.75303 35.8441L6.43503 36.3171H1.84803L2.53003 35.8441L1.88103 37.3731C1.77103 37.6297 1.6537 37.8167 1.52903 37.9341C1.4117 38.0441 1.2357 38.0991 1.00103 38.0991ZM4.12503 32.0601L2.71703 35.4151L2.42003 34.9861H5.86303L5.56603 35.4151L4.14703 32.0601H4.12503Z" fill="black"/>
</svg>
