<svg width="30" height="30" viewBox="0 0 30 30" fill="none" xmlns="http://www.w3.org/2000/svg">
<path fill-rule="evenodd" clip-rule="evenodd" d="M20.1557 26.2409C17.4818 26.3423 13.067 25.6484 8.70931 21.2907C4.35157 16.933 3.65765 12.5182 3.75906 9.84433C3.82943 7.98677 4.88344 6.42708 6.03365 5.27687C8.2434 3.06712 12.0169 3.20691 13.5851 6.0169L14.4003 7.47781C15.4185 9.30211 14.9841 11.5846 13.522 13.0795C13.5192 13.0839 13.5158 13.0898 13.512 13.0969C13.4907 13.1367 13.455 13.2196 13.4486 13.3502C13.4375 13.5765 13.5047 14.2541 14.6253 15.3747C15.746 16.4954 16.4235 16.5625 16.6498 16.5514C16.7804 16.545 16.8633 16.5093 16.903 16.488C16.9102 16.4842 16.916 16.4808 16.9205 16.478C18.4153 15.0159 20.6978 14.5815 22.5222 15.5996L23.9831 16.4149C26.7931 17.9831 26.9329 21.7566 24.7231 23.9663C23.5729 25.1166 22.0132 26.1706 20.1557 26.2409ZM18.5779 18.2182L18.5764 18.2198L18.5731 18.223L18.5661 18.2298L18.5502 18.2451C18.5386 18.256 18.5253 18.2682 18.5103 18.2816C18.4801 18.3083 18.4427 18.3397 18.3979 18.3742C18.3087 18.443 18.1886 18.5252 18.038 18.6059C17.7345 18.7685 17.3067 18.9249 16.7674 18.9514C15.6536 19.006 14.3541 18.5016 12.9262 17.0738C11.4984 15.6459 10.9941 14.3464 11.0486 13.2327C11.0751 12.6933 11.2315 12.2655 11.3941 11.9621C11.4748 11.8114 11.557 11.6914 11.6258 11.6021C11.6603 11.5573 11.6917 11.5199 11.7184 11.4898C11.7317 11.4747 11.744 11.4614 11.7548 11.4499L11.7701 11.4339L11.777 11.4269L11.7802 11.4237L11.7817 11.4221C11.7838 11.4201 13.2015 12.8387 11.7832 11.4206C12.607 10.5968 12.7464 9.44483 12.3022 8.64878L11.4869 7.18785C10.8331 6.0163 9.02264 5.68597 7.7327 6.97591C6.78 7.9286 6.19766 8.94512 6.16014 9.93534C6.07974 12.0555 6.59912 15.7824 10.4084 19.5916C14.2176 23.4009 17.9444 23.9202 20.0646 23.8399C21.0548 23.8023 22.0714 23.22 23.0241 22.2673C24.314 20.9774 23.9837 19.1669 22.8121 18.5131L21.3512 17.6978C20.5552 17.2536 19.4033 17.3929 18.5795 18.2167C17.1613 16.7985 18.5801 18.2161 18.5779 18.2182Z" fill="black"/>
</svg>
