<svg width="30" height="30" viewBox="0 0 30 30" fill="none" xmlns="http://www.w3.org/2000/svg">
<path d="M14.9975 2.5C12.312 2.50054 9.69815 3.36591 7.54291 4.96796C5.38767 6.57001 3.80566 8.82356 3.03116 11.3949C2.25665 13.9662 2.33083 16.7186 3.2427 19.2445C4.15457 21.7704 5.85566 23.9355 8.09405 25.4191C10.3325 26.9028 12.9891 27.6261 15.6707 27.482C18.3523 27.3379 20.9162 26.334 22.9827 24.6191C25.0492 22.9041 26.5085 20.5692 27.1444 17.9602C27.7804 15.3511 27.5592 12.6066 26.5136 10.1331C25.5568 7.86967 23.9542 5.93849 21.9059 4.58089C19.8577 3.22329 17.4548 2.4995 14.9975 2.5ZM8.94908 23.0645C9.53374 21.9683 10.4053 21.0515 11.4707 20.4123C12.536 19.7731 13.7551 19.4355 14.9975 19.4355C16.2399 19.4355 17.4589 19.7731 18.5243 20.4123C19.5896 21.0515 20.4612 21.9683 21.0459 23.0645C19.3023 24.3763 17.1794 25.0857 14.9975 25.0857C12.8155 25.0857 10.6927 24.3763 8.94908 23.0645ZM12.1749 14.1935C12.1749 13.6353 12.3404 13.0896 12.6506 12.6254C12.9607 12.1612 13.4016 11.7995 13.9173 11.5858C14.4331 11.3722 15.0006 11.3163 15.5481 11.4252C16.0957 11.5341 16.5986 11.8029 16.9933 12.1977C17.3881 12.5924 17.6569 13.0954 17.7658 13.6429C17.8747 14.1904 17.8188 14.7579 17.6052 15.2737C17.3916 15.7895 17.0298 16.2303 16.5656 16.5404C16.1014 16.8506 15.5557 17.0161 14.9975 17.0161C14.2489 17.0161 13.5309 16.7187 13.0016 16.1894C12.4723 15.6601 12.1749 14.9421 12.1749 14.1935ZM22.8321 21.3306C21.8515 19.7872 20.4378 18.567 18.7676 17.8226C19.4814 17.082 19.9616 16.1479 20.1483 15.1364C20.335 14.1249 20.22 13.0809 19.8177 12.1343C19.4154 11.1877 18.7434 10.3804 17.8856 9.81295C17.0278 9.24546 16.022 8.94288 14.9934 8.94288C13.9649 8.94288 12.9591 9.24546 12.1013 9.81295C11.2434 10.3804 10.5715 11.1877 10.1692 12.1343C9.76685 13.0809 9.65188 14.1249 9.8386 15.1364C10.0253 16.1479 10.5055 17.082 11.2192 17.8226C9.54876 18.5632 8.13662 19.7844 7.16279 21.3306C5.96477 19.851 5.21028 18.0623 4.98662 16.1716C4.76297 14.2809 5.0793 12.3655 5.89901 10.6471C6.71872 8.92877 8.0083 7.47766 9.61847 6.46176C11.2287 5.44587 13.0936 4.90672 14.9975 4.90672C16.9013 4.90672 18.7663 5.44587 20.3765 6.46176C21.9866 7.47766 23.2762 8.92877 24.0959 10.6471C24.9156 12.3655 25.232 14.2809 25.0083 16.1716C24.7847 18.0623 24.0302 19.851 22.8321 21.3306Z" fill="black"/>
</svg>
