<svg width="20" height="20" viewBox="0 0 20 20" fill="none" xmlns="http://www.w3.org/2000/svg">
<path d="M10 1.66699C14.6024 1.66699 18.333 5.39763 18.333 10C18.333 14.6024 14.6024 18.333 10 18.333C5.39763 18.333 1.66699 14.6024 1.66699 10C1.66699 5.39763 5.39763 1.66699 10 1.66699ZM10 3.33301C6.3181 3.33301 3.33301 6.3181 3.33301 10C3.33301 13.6819 6.3181 16.667 10 16.667C13.6819 16.667 16.667 13.6819 16.667 10C16.667 6.3181 13.6819 3.33301 10 3.33301ZM10 12.5C10.46 12.5002 10.8328 12.873 10.833 13.333V13.3418C10.8329 13.8019 10.4601 14.1746 10 14.1748C9.53994 14.1746 9.16609 13.8019 9.16602 13.3418V13.333C9.16619 12.873 9.54001 12.5002 10 12.5ZM10 5.83301C11.3805 5.83317 12.4998 6.95255 12.5 8.33301C12.5 8.894 12.349 9.35123 12.0664 9.71875C11.8054 10.058 11.472 10.2614 11.2656 10.3867C11.016 10.5383 10.9338 10.5906 10.8779 10.6523C10.8772 10.653 10.8758 10.6535 10.875 10.6543C10.8615 10.6684 10.8331 10.6995 10.833 10.833C10.833 11.2931 10.4601 11.6668 10 11.667C9.5399 11.6668 9.16602 11.2931 9.16602 10.833C9.16609 10.2938 9.34205 9.8653 9.64258 9.5332C9.87412 9.27753 10.1697 9.10058 10.3477 8.99414C10.3665 8.98288 10.3844 8.97259 10.4004 8.96289C10.6102 8.83546 10.6937 8.76974 10.7451 8.70312C10.7749 8.66444 10.833 8.57686 10.833 8.33301C10.8328 7.87301 10.46 7.50016 10 7.5C9.6928 7.50011 9.42267 7.66592 9.27734 7.91699C9.04687 8.31525 8.537 8.45204 8.13867 8.22168C7.74053 7.99121 7.60473 7.48129 7.83496 7.08301C8.2659 6.33802 9.07369 5.83312 10 5.83301Z" fill="#19C8D1"/>
</svg>
