<svg width="18" height="18" viewBox="0 0 18 18" fill="none" xmlns="http://www.w3.org/2000/svg">
<path d="M8 0C12.4183 0 16 3.58173 16 8C16 9.8486 15.3703 11.5487 14.3174 12.9033L17.707 16.293C18.0974 16.6835 18.0975 17.3166 17.707 17.707C17.3166 18.0975 16.6835 18.0974 16.293 17.707L12.9033 14.3174C11.5487 15.3703 9.8486 16 8 16C3.58173 16 0 12.4183 0 8C0 3.58173 3.58173 0 8 0ZM8 2C4.68629 2 2 4.68629 2 8C2 11.3137 4.68629 14 8 14C11.3137 14 14 11.3137 14 8C14 4.68629 11.3137 2 8 2Z" fill="white"/>
</svg>
