<svg width="30" height="30" viewBox="0 0 30 30" fill="none" xmlns="http://www.w3.org/2000/svg">
<path fill-rule="evenodd" clip-rule="evenodd" d="M13.781 2.70321C14.571 2.43226 15.429 2.43226 16.2191 2.70323L23.7191 5.27583C25.2334 5.79525 26.25 7.21679 26.25 8.81454V14.7205C26.25 18.2214 24.8139 20.7444 22.7344 22.7089C20.7688 24.5657 18.1939 25.9512 15.7898 27.2448C15.7242 27.2801 15.6588 27.3153 15.5935 27.3504C15.2231 27.5499 14.7769 27.5499 14.4065 27.3504C14.3412 27.3153 14.2758 27.2801 14.2103 27.2448C11.8061 25.9512 9.23119 24.5657 7.26562 22.7089C5.18613 20.7444 3.75 18.2214 3.75 14.7205V8.81454C3.75 7.21675 4.7667 5.79524 6.28095 5.27583L13.781 2.70321ZM14.5935 5.06239L7.09365 7.63497C6.58891 7.8081 6.25 8.28194 6.25 8.81454V14.7205C6.25 17.4219 7.31387 19.3192 8.98438 20.8973C10.5795 22.4043 12.6902 23.5883 15 24.8352C17.3098 23.5883 19.4205 22.4043 21.0156 20.8973C22.6861 19.3192 23.75 17.4219 23.75 14.7205V8.81454C23.75 8.2819 23.4111 7.80809 22.9064 7.63497L15.4064 5.0624C15.143 4.97207 14.857 4.97207 14.5935 5.06239ZM20 11.3998C20.4882 11.8869 20.4882 12.6766 20 13.1637L14.6339 18.5183C14.1457 19.0054 13.3543 19.0054 12.8661 18.5183L10.4197 16.0772C9.93158 15.5901 9.93158 14.8003 10.4197 14.3132C10.9079 13.8261 11.6993 13.8261 12.1875 14.3132L13.75 15.8724L18.2322 11.3998C18.7204 10.9127 19.5118 10.9127 20 11.3998Z" fill="black"/>
</svg>
