<svg width="25" height="24" viewBox="0 0 25 24" fill="none" xmlns="http://www.w3.org/2000/svg">
<path d="M10.7 10.2C11.1971 10.2 11.6 10.6029 11.6 11.1V15.6C11.6 16.0971 11.1971 16.5 10.7 16.5C10.2029 16.5 9.8 16.0971 9.8 15.6V11.1C9.8 10.6029 10.2029 10.2 10.7 10.2Z" fill="black"/>
<path d="M14.3 10.2C14.7971 10.2 15.2 10.6029 15.2 11.1V15.6C15.2 16.0971 14.7971 16.5 14.3 16.5C13.8029 16.5 13.4 16.0971 13.4 15.6V11.1C13.4 10.6029 13.8029 10.2 14.3 10.2Z" fill="black"/>
<path fill-rule="evenodd" clip-rule="evenodd" d="M8.37474 5.7C9.06906 4.11103 10.6539 3 12.5 3C14.3461 3 15.9309 4.11103 16.6252 5.7H20.6C21.0971 5.7 21.5 6.10295 21.5 6.6C21.5 7.09705 21.0971 7.5 20.6 7.5H19.642L18.91 18.4796C18.8155 19.8979 17.6375 21 16.216 21H8.784C7.36254 21 6.18453 19.8979 6.08997 18.4796L5.358 7.5H4.4C3.90295 7.5 3.5 7.09705 3.5 6.6C3.5 6.10295 3.90295 5.7 4.4 5.7H8.37474ZM14.5127 5.7C14.018 5.14751 13.2991 4.8 12.5 4.8C11.7009 4.8 10.982 5.14751 10.4873 5.7H14.5127ZM7.162 7.5L7.88599 18.3598C7.91751 18.8326 8.31018 19.2 8.784 19.2H16.216C16.6899 19.2 17.0825 18.8326 17.114 18.3598L17.838 7.5H16.0058C15.9925 7.50029 15.9793 7.50029 15.9662 7.5H7.162Z" fill="black"/>
</svg>
