<svg width="20" height="21" viewBox="0 0 20 21" fill="none" xmlns="http://www.w3.org/2000/svg">
<circle cx="10.0001" cy="10.5" r="8.33333" fill="white"/>
<path d="M10 2.16699C14.6024 2.16699 18.333 5.89763 18.333 10.5C18.333 14.8212 15.0442 18.373 10.833 18.791V16.2617C11.8498 16.0899 12.7963 15.6079 13.5352 14.8691C14.4729 13.9315 15 12.6591 15 11.333C14.9998 10.873 14.627 10.5002 14.167 10.5C13.7069 10.5 13.3332 10.8729 13.333 11.333C13.333 12.217 12.9825 13.0654 12.3574 13.6904C11.7323 14.3156 10.884 14.667 10 14.667C9.11596 14.667 8.2677 14.3156 7.64258 13.6904C7.01756 13.0654 6.66699 12.217 6.66699 11.333C6.66682 10.8729 6.29314 10.5 5.83301 10.5C5.37303 10.5002 5.00018 10.873 5 11.333C5 12.6591 5.52715 13.9315 6.46484 14.8691C7.2037 15.6079 8.15021 16.0899 9.16699 16.2617V18.791C4.95579 18.373 1.66699 14.8212 1.66699 10.5C1.66699 5.89763 5.39763 2.16699 10 2.16699ZM10 5.5C8.55257 5.5 7.50007 6.75677 7.5 8.15137V11.1816C7.5 12.5763 8.55252 13.833 10 13.833C11.4475 13.833 12.5 12.5763 12.5 11.1816V8.15137C12.4999 6.75677 11.4474 5.5 10 5.5ZM10 7.16699C10.3934 7.16699 10.8329 7.5378 10.833 8.15137V11.1816C10.833 11.7953 10.3935 12.167 10 12.167C9.60653 12.167 9.16699 11.7953 9.16699 11.1816V8.15137C9.16706 7.5378 9.60657 7.16699 10 7.16699Z" fill="#FF667D"/>
</svg>
