<svg width="25" height="24" viewBox="0 0 25 24" fill="none" xmlns="http://www.w3.org/2000/svg">
<path d="M18.3 21H6.7C5.5 21 4.8 21 4.1 20.7C3.5 20.4 3.1 20 2.8 19.4C2.5 18.8 2.5 18.1 2.5 16.8V7.2C2.5 6 2.5 5.3 2.8 4.6C3.1 4 3.5 3.6 4.1 3.3C4.7 3 5.4 3 6.7 3H19.5C20.1 3 20.5 3.4 20.5 4C20.5 4.6 20.1 5 19.5 5H6.7C5.8 5 5.3 5 5 5.1C4.8 5.1 4.7 5.4 4.6 5.5C4.5 5.7 4.5 6.3 4.5 7.2V16.8C4.5 17.7 4.5 18.2 4.6 18.5C4.6 18.7 4.8 18.8 5 18.9C5.2 19 5.8 19 6.7 19H18.3C19.2 19 19.7 19 20 18.9C20.2 18.9 20.3 18.7 20.4 18.5C20.5 18.3 20.5 17.7 20.5 16.8V11.2C20.5 10.3 20.5 9.8 20.4 9.5C20.3 9.2 20.2 9.2 20 9.1C19.8 9 19.2 9 18.3 9H7.5C6.9 9 6.5 8.6 6.5 8C6.5 7.4 6.9 7 7.5 7H18.3C19.5 7 20.2 7 20.9 7.3C21.5 7.6 21.9 8 22.2 8.6C22.5 9.2 22.5 9.9 22.5 11.2V16.8C22.5 18 22.5 18.7 22.2 19.4C21.9 20 21.5 20.4 20.9 20.7C20.3 21 19.6 21 18.3 21ZM17 15.6C16.2 15.6 15.5 14.9 15.5 14.1C15.5 13.3 16.2 12.6 17 12.6C17.8 12.6 18.5 13.3 18.5 14.1C18.5 14.9 17.8 15.6 17 15.6Z" fill="black"/>
</svg>
